<mxfile host="Electron" modified="2024-06-20T21:54:25.642Z" agent="Mozilla/5.0 (X11; Linux x86_64) AppleWebKit/537.36 (KHTML, like Gecko) draw.io/24.5.3 Chrome/124.0.6367.207 Electron/30.0.6 Safari/537.36" etag="MWF1PkAwS5-G2ixbLXUH" version="24.5.3" type="device">
  <diagram name="Casosdeuso" id="RIPXU9eyl_9TeuMKGKUn">
    <mxGraphModel dx="1092" dy="563" grid="1" gridSize="10" guides="1" tooltips="1" connect="1" arrows="1" fold="1" page="1" pageScale="1" pageWidth="827" pageHeight="1169" math="0" shadow="0">
      <root>
        <mxCell id="0" />
        <mxCell id="1" parent="0" />
        <mxCell id="tjsxlL74WkM-lfArzqQu-42" style="edgeStyle=orthogonalEdgeStyle;rounded=0;orthogonalLoop=1;jettySize=auto;html=1;entryX=1;entryY=0.5;entryDx=0;entryDy=0;elbow=vertical;curved=1;" edge="1" parent="1" source="tjsxlL74WkM-lfArzqQu-1" target="tjsxlL74WkM-lfArzqQu-25">
          <mxGeometry relative="1" as="geometry" />
        </mxCell>
        <mxCell id="tjsxlL74WkM-lfArzqQu-44" style="edgeStyle=orthogonalEdgeStyle;rounded=0;orthogonalLoop=1;jettySize=auto;html=1;entryX=1;entryY=0.5;entryDx=0;entryDy=0;elbow=vertical;curved=1;fillColor=#a20025;strokeColor=#6F0000;" edge="1" parent="1" source="tjsxlL74WkM-lfArzqQu-1" target="tjsxlL74WkM-lfArzqQu-34">
          <mxGeometry relative="1" as="geometry">
            <mxPoint x="440" y="310" as="targetPoint" />
          </mxGeometry>
        </mxCell>
        <mxCell id="tjsxlL74WkM-lfArzqQu-45" style="edgeStyle=orthogonalEdgeStyle;rounded=0;orthogonalLoop=1;jettySize=auto;html=1;entryX=1;entryY=0.5;entryDx=0;entryDy=0;elbow=vertical;curved=1;fillColor=#a0522d;strokeColor=#6D1F00;" edge="1" parent="1" source="tjsxlL74WkM-lfArzqQu-1" target="tjsxlL74WkM-lfArzqQu-24">
          <mxGeometry relative="1" as="geometry" />
        </mxCell>
        <mxCell id="tjsxlL74WkM-lfArzqQu-1" value="Sistema" style="shape=umlActor;verticalLabelPosition=bottom;verticalAlign=top;html=1;" vertex="1" parent="1">
          <mxGeometry x="750" y="130" width="30" height="60" as="geometry" />
        </mxCell>
        <mxCell id="tjsxlL74WkM-lfArzqQu-35" style="edgeStyle=orthogonalEdgeStyle;rounded=0;orthogonalLoop=1;jettySize=auto;html=1;entryX=0;entryY=0.5;entryDx=0;entryDy=0;elbow=vertical;curved=1;fillColor=#f0a30a;strokeColor=#BD7000;" edge="1" parent="1" source="tjsxlL74WkM-lfArzqQu-2" target="tjsxlL74WkM-lfArzqQu-9">
          <mxGeometry relative="1" as="geometry" />
        </mxCell>
        <mxCell id="tjsxlL74WkM-lfArzqQu-36" style="edgeStyle=orthogonalEdgeStyle;rounded=0;orthogonalLoop=1;jettySize=auto;html=1;entryX=0;entryY=0.5;entryDx=0;entryDy=0;elbow=vertical;curved=1;fillColor=#e51400;strokeColor=#B20000;" edge="1" parent="1" source="tjsxlL74WkM-lfArzqQu-2" target="tjsxlL74WkM-lfArzqQu-13">
          <mxGeometry relative="1" as="geometry" />
        </mxCell>
        <mxCell id="tjsxlL74WkM-lfArzqQu-37" style="edgeStyle=orthogonalEdgeStyle;rounded=0;orthogonalLoop=1;jettySize=auto;html=1;elbow=vertical;curved=1;fillColor=#a0522d;strokeColor=#6D1F00;" edge="1" parent="1" source="tjsxlL74WkM-lfArzqQu-2" target="tjsxlL74WkM-lfArzqQu-15">
          <mxGeometry relative="1" as="geometry" />
        </mxCell>
        <mxCell id="tjsxlL74WkM-lfArzqQu-38" style="edgeStyle=orthogonalEdgeStyle;rounded=0;orthogonalLoop=1;jettySize=auto;html=1;entryX=0;entryY=0.5;entryDx=0;entryDy=0;elbow=vertical;curved=1;" edge="1" parent="1" source="tjsxlL74WkM-lfArzqQu-2" target="tjsxlL74WkM-lfArzqQu-18">
          <mxGeometry relative="1" as="geometry" />
        </mxCell>
        <mxCell id="tjsxlL74WkM-lfArzqQu-2" value="Administrador" style="shape=umlActor;verticalLabelPosition=bottom;verticalAlign=top;html=1;" vertex="1" parent="1">
          <mxGeometry x="70" y="430" width="30" height="60" as="geometry" />
        </mxCell>
        <mxCell id="tjsxlL74WkM-lfArzqQu-26" style="edgeStyle=orthogonalEdgeStyle;rounded=0;orthogonalLoop=1;jettySize=auto;html=1;entryX=0;entryY=0.5;entryDx=0;entryDy=0;elbow=vertical;curved=1;fillColor=#60a917;strokeColor=#2D7600;" edge="1" parent="1" source="tjsxlL74WkM-lfArzqQu-4" target="tjsxlL74WkM-lfArzqQu-17">
          <mxGeometry relative="1" as="geometry" />
        </mxCell>
        <mxCell id="tjsxlL74WkM-lfArzqQu-28" style="edgeStyle=orthogonalEdgeStyle;rounded=0;orthogonalLoop=1;jettySize=auto;html=1;entryX=0;entryY=0.5;entryDx=0;entryDy=0;elbow=vertical;curved=1;fillColor=#0050ef;strokeColor=#001DBC;" edge="1" parent="1" source="tjsxlL74WkM-lfArzqQu-4" target="tjsxlL74WkM-lfArzqQu-14">
          <mxGeometry relative="1" as="geometry" />
        </mxCell>
        <mxCell id="tjsxlL74WkM-lfArzqQu-32" style="edgeStyle=orthogonalEdgeStyle;rounded=0;orthogonalLoop=1;jettySize=auto;html=1;entryX=0;entryY=0.5;entryDx=0;entryDy=0;elbow=vertical;curved=1;fillColor=#d80073;strokeColor=#A50040;" edge="1" parent="1" source="tjsxlL74WkM-lfArzqQu-4" target="tjsxlL74WkM-lfArzqQu-21">
          <mxGeometry relative="1" as="geometry" />
        </mxCell>
        <mxCell id="tjsxlL74WkM-lfArzqQu-48" style="edgeStyle=orthogonalEdgeStyle;rounded=0;orthogonalLoop=1;jettySize=auto;html=1;elbow=vertical;curved=1;fillColor=#a20025;strokeColor=#6F0000;" edge="1" parent="1" target="tjsxlL74WkM-lfArzqQu-19">
          <mxGeometry relative="1" as="geometry">
            <mxPoint x="90" y="180" as="sourcePoint" />
            <mxPoint x="150" y="305" as="targetPoint" />
            <Array as="points">
              <mxPoint x="90" y="181" />
              <mxPoint x="130" y="181" />
              <mxPoint x="130" y="300" />
            </Array>
          </mxGeometry>
        </mxCell>
        <mxCell id="tjsxlL74WkM-lfArzqQu-4" value="Usuario" style="shape=umlActor;verticalLabelPosition=bottom;verticalAlign=top;html=1;" vertex="1" parent="1">
          <mxGeometry x="10" y="130" width="80" height="90" as="geometry" />
        </mxCell>
        <mxCell id="tjsxlL74WkM-lfArzqQu-9" value="Crear partido" style="ellipse;whiteSpace=wrap;html=1;fillColor=#f0a30a;fontColor=#000000;strokeColor=#BD7000;" vertex="1" parent="1">
          <mxGeometry x="230" y="430" width="90" height="60" as="geometry" />
        </mxCell>
        <mxCell id="tjsxlL74WkM-lfArzqQu-39" style="edgeStyle=orthogonalEdgeStyle;rounded=0;orthogonalLoop=1;jettySize=auto;html=1;entryX=1;entryY=0.5;entryDx=0;entryDy=0;elbow=vertical;curved=1;fillColor=#e3c800;strokeColor=#B09500;" edge="1" parent="1" source="tjsxlL74WkM-lfArzqQu-10" target="tjsxlL74WkM-lfArzqQu-9">
          <mxGeometry relative="1" as="geometry" />
        </mxCell>
        <mxCell id="tjsxlL74WkM-lfArzqQu-52" style="edgeStyle=orthogonalEdgeStyle;rounded=0;orthogonalLoop=1;jettySize=auto;html=1;elbow=vertical;curved=1;fillColor=#f0a30a;strokeColor=#BD7000;entryX=0.5;entryY=1;entryDx=0;entryDy=0;" edge="1" parent="1" source="tjsxlL74WkM-lfArzqQu-10" target="tjsxlL74WkM-lfArzqQu-20">
          <mxGeometry relative="1" as="geometry">
            <mxPoint x="540" y="100" as="targetPoint" />
          </mxGeometry>
        </mxCell>
        <mxCell id="tjsxlL74WkM-lfArzqQu-10" value="Generar equipos" style="ellipse;whiteSpace=wrap;html=1;fillColor=#f0a30a;fontColor=#000000;strokeColor=#BD7000;" vertex="1" parent="1">
          <mxGeometry x="350" y="430" width="90" height="60" as="geometry" />
        </mxCell>
        <mxCell id="tjsxlL74WkM-lfArzqQu-13" value="Modificar equipo" style="ellipse;whiteSpace=wrap;html=1;fillColor=#e51400;fontColor=#ffffff;strokeColor=#B20000;" vertex="1" parent="1">
          <mxGeometry x="280" y="310" width="90" height="60" as="geometry" />
        </mxCell>
        <mxCell id="tjsxlL74WkM-lfArzqQu-14" value="Darse de baja" style="ellipse;whiteSpace=wrap;html=1;fillColor=#0050ef;fontColor=#ffffff;strokeColor=#001DBC;" vertex="1" parent="1">
          <mxGeometry x="150" y="80" width="90" height="60" as="geometry" />
        </mxCell>
        <mxCell id="tjsxlL74WkM-lfArzqQu-15" value="Registrar ausencia" style="ellipse;whiteSpace=wrap;html=1;fillColor=#a0522d;fontColor=#ffffff;strokeColor=#6D1F00;" vertex="1" parent="1">
          <mxGeometry x="160" y="540" width="90" height="60" as="geometry" />
        </mxCell>
        <mxCell id="tjsxlL74WkM-lfArzqQu-40" style="edgeStyle=orthogonalEdgeStyle;rounded=0;orthogonalLoop=1;jettySize=auto;html=1;elbow=vertical;curved=1;fillColor=#a0522d;strokeColor=#6D1F00;" edge="1" parent="1" source="tjsxlL74WkM-lfArzqQu-16" target="tjsxlL74WkM-lfArzqQu-15">
          <mxGeometry relative="1" as="geometry" />
        </mxCell>
        <mxCell id="tjsxlL74WkM-lfArzqQu-16" value="Gestion de infraccion" style="ellipse;whiteSpace=wrap;html=1;fillColor=#a0522d;fontColor=#ffffff;strokeColor=#6D1F00;" vertex="1" parent="1">
          <mxGeometry x="350" y="550" width="90" height="60" as="geometry" />
        </mxCell>
        <mxCell id="tjsxlL74WkM-lfArzqQu-17" value="Suscribirse" style="ellipse;whiteSpace=wrap;html=1;fillColor=#60a917;fontColor=#ffffff;strokeColor=#2D7600;" vertex="1" parent="1">
          <mxGeometry x="130" y="10" width="90" height="60" as="geometry" />
        </mxCell>
        <mxCell id="tjsxlL74WkM-lfArzqQu-57" style="edgeStyle=orthogonalEdgeStyle;rounded=0;orthogonalLoop=1;jettySize=auto;html=1;fillColor=#a20025;strokeColor=#6F0000;" edge="1" parent="1" source="tjsxlL74WkM-lfArzqQu-18" target="tjsxlL74WkM-lfArzqQu-19">
          <mxGeometry relative="1" as="geometry" />
        </mxCell>
        <mxCell id="tjsxlL74WkM-lfArzqQu-18" value="Confirmar partido" style="ellipse;whiteSpace=wrap;html=1;fillColor=#a20025;strokeColor=#6F0000;fontColor=#ffffff;" vertex="1" parent="1">
          <mxGeometry x="70" y="310" width="90" height="60" as="geometry" />
        </mxCell>
        <mxCell id="tjsxlL74WkM-lfArzqQu-47" style="edgeStyle=orthogonalEdgeStyle;rounded=0;orthogonalLoop=1;jettySize=auto;html=1;entryX=0;entryY=0.5;entryDx=0;entryDy=0;elbow=vertical;curved=1;fillColor=#a20025;strokeColor=#6F0000;" edge="1" parent="1" source="tjsxlL74WkM-lfArzqQu-19" target="tjsxlL74WkM-lfArzqQu-34">
          <mxGeometry relative="1" as="geometry" />
        </mxCell>
        <mxCell id="tjsxlL74WkM-lfArzqQu-19" value="Calificar jugador" style="ellipse;whiteSpace=wrap;html=1;fillColor=#a20025;fontColor=#ffffff;strokeColor=#6F0000;" vertex="1" parent="1">
          <mxGeometry x="110" y="250" width="90" height="60" as="geometry" />
        </mxCell>
        <mxCell id="tjsxlL74WkM-lfArzqQu-50" style="edgeStyle=orthogonalEdgeStyle;rounded=0;orthogonalLoop=1;jettySize=auto;html=1;entryX=1;entryY=0.5;entryDx=0;entryDy=0;elbow=vertical;curved=1;fillColor=#d80073;strokeColor=#A50040;" edge="1" parent="1" source="tjsxlL74WkM-lfArzqQu-20" target="tjsxlL74WkM-lfArzqQu-21">
          <mxGeometry relative="1" as="geometry" />
        </mxCell>
        <mxCell id="tjsxlL74WkM-lfArzqQu-20" value="Llenar Jugadores partido" style="ellipse;whiteSpace=wrap;html=1;" vertex="1" parent="1">
          <mxGeometry x="490" y="60" width="90" height="60" as="geometry" />
        </mxCell>
        <mxCell id="tjsxlL74WkM-lfArzqQu-21" value="Cambiar modo suscripcion" style="ellipse;whiteSpace=wrap;html=1;fillColor=#d80073;fontColor=#ffffff;strokeColor=#A50040;" vertex="1" parent="1">
          <mxGeometry x="250" y="190" width="90" height="60" as="geometry" />
        </mxCell>
        <mxCell id="tjsxlL74WkM-lfArzqQu-31" style="edgeStyle=orthogonalEdgeStyle;rounded=0;orthogonalLoop=1;jettySize=auto;html=1;elbow=vertical;curved=1;fillColor=#60a917;strokeColor=#2D7600;" edge="1" parent="1" source="tjsxlL74WkM-lfArzqQu-22" target="tjsxlL74WkM-lfArzqQu-17">
          <mxGeometry relative="1" as="geometry" />
        </mxCell>
        <mxCell id="tjsxlL74WkM-lfArzqQu-54" style="edgeStyle=isometricEdgeStyle;rounded=0;orthogonalLoop=1;jettySize=auto;html=1;entryX=0.5;entryY=0;entryDx=0;entryDy=0;elbow=vertical;fillColor=#60a917;strokeColor=#2D7600;" edge="1" parent="1" source="tjsxlL74WkM-lfArzqQu-22" target="tjsxlL74WkM-lfArzqQu-20">
          <mxGeometry relative="1" as="geometry" />
        </mxCell>
        <mxCell id="tjsxlL74WkM-lfArzqQu-22" value="Definir formaJuego" style="ellipse;whiteSpace=wrap;html=1;fillColor=#60a917;fontColor=#ffffff;strokeColor=#2D7600;" vertex="1" parent="1">
          <mxGeometry x="300" y="10" width="90" height="60" as="geometry" />
        </mxCell>
        <mxCell id="tjsxlL74WkM-lfArzqQu-29" style="edgeStyle=orthogonalEdgeStyle;rounded=0;orthogonalLoop=1;jettySize=auto;html=1;elbow=vertical;curved=1;fillColor=#0050ef;strokeColor=#001DBC;" edge="1" parent="1" source="tjsxlL74WkM-lfArzqQu-23" target="tjsxlL74WkM-lfArzqQu-14">
          <mxGeometry relative="1" as="geometry" />
        </mxCell>
        <mxCell id="tjsxlL74WkM-lfArzqQu-49" style="edgeStyle=orthogonalEdgeStyle;rounded=0;orthogonalLoop=1;jettySize=auto;html=1;entryX=0;entryY=0.5;entryDx=0;entryDy=0;elbow=vertical;curved=1;fillColor=#0050ef;strokeColor=#001DBC;" edge="1" parent="1" source="tjsxlL74WkM-lfArzqQu-23" target="tjsxlL74WkM-lfArzqQu-20">
          <mxGeometry relative="1" as="geometry" />
        </mxCell>
        <mxCell id="tjsxlL74WkM-lfArzqQu-23" value="Jugador reemplazo" style="ellipse;whiteSpace=wrap;html=1;fillColor=#0050ef;fontColor=#ffffff;strokeColor=#001DBC;" vertex="1" parent="1">
          <mxGeometry x="300" y="80" width="90" height="60" as="geometry" />
        </mxCell>
        <mxCell id="tjsxlL74WkM-lfArzqQu-46" style="edgeStyle=orthogonalEdgeStyle;rounded=0;orthogonalLoop=1;jettySize=auto;html=1;entryX=1;entryY=0.5;entryDx=0;entryDy=0;elbow=vertical;curved=1;fillColor=#a0522d;strokeColor=#6D1F00;" edge="1" parent="1" source="tjsxlL74WkM-lfArzqQu-24" target="tjsxlL74WkM-lfArzqQu-16">
          <mxGeometry relative="1" as="geometry" />
        </mxCell>
        <mxCell id="tjsxlL74WkM-lfArzqQu-53" style="edgeStyle=orthogonalEdgeStyle;rounded=0;orthogonalLoop=1;jettySize=auto;html=1;elbow=vertical;curved=1;fillColor=#a0522d;strokeColor=#6D1F00;" edge="1" parent="1" source="tjsxlL74WkM-lfArzqQu-24" target="tjsxlL74WkM-lfArzqQu-4">
          <mxGeometry relative="1" as="geometry">
            <Array as="points">
              <mxPoint x="575" y="380" />
              <mxPoint x="50" y="380" />
            </Array>
          </mxGeometry>
        </mxCell>
        <mxCell id="tjsxlL74WkM-lfArzqQu-24" value="Penalizar" style="ellipse;whiteSpace=wrap;html=1;fillColor=#a0522d;fontColor=#ffffff;strokeColor=#6D1F00;" vertex="1" parent="1">
          <mxGeometry x="590" y="420" width="90" height="60" as="geometry" />
        </mxCell>
        <mxCell id="tjsxlL74WkM-lfArzqQu-43" style="edgeStyle=orthogonalEdgeStyle;rounded=0;orthogonalLoop=1;jettySize=auto;html=1;elbow=vertical;curved=1;fillColor=#6a00ff;strokeColor=#3700CC;" edge="1" parent="1" source="tjsxlL74WkM-lfArzqQu-25" target="tjsxlL74WkM-lfArzqQu-4">
          <mxGeometry relative="1" as="geometry">
            <mxPoint x="410" y="260" as="targetPoint" />
          </mxGeometry>
        </mxCell>
        <mxCell id="tjsxlL74WkM-lfArzqQu-25" value="Mandar email" style="ellipse;whiteSpace=wrap;html=1;fillColor=#6a00ff;fontColor=#ffffff;strokeColor=#3700CC;" vertex="1" parent="1">
          <mxGeometry x="580" y="160" width="90" height="60" as="geometry" />
        </mxCell>
        <mxCell id="tjsxlL74WkM-lfArzqQu-34" value="Promedio" style="ellipse;whiteSpace=wrap;html=1;fillColor=#a20025;fontColor=#ffffff;strokeColor=#6F0000;" vertex="1" parent="1">
          <mxGeometry x="580" y="250" width="90" height="60" as="geometry" />
        </mxCell>
        <mxCell id="tjsxlL74WkM-lfArzqQu-41" style="edgeStyle=orthogonalEdgeStyle;rounded=0;orthogonalLoop=1;jettySize=auto;html=1;entryX=1;entryY=0.333;entryDx=0;entryDy=0;entryPerimeter=0;elbow=vertical;curved=1;" edge="1" parent="1" source="tjsxlL74WkM-lfArzqQu-1" target="tjsxlL74WkM-lfArzqQu-20">
          <mxGeometry relative="1" as="geometry" />
        </mxCell>
        <mxCell id="tjsxlL74WkM-lfArzqQu-51" style="edgeStyle=orthogonalEdgeStyle;rounded=0;orthogonalLoop=1;jettySize=auto;html=1;entryX=0.189;entryY=0.967;entryDx=0;entryDy=0;entryPerimeter=0;elbow=vertical;curved=1;fillColor=#e51400;strokeColor=#B20000;" edge="1" parent="1" source="tjsxlL74WkM-lfArzqQu-13" target="tjsxlL74WkM-lfArzqQu-20">
          <mxGeometry relative="1" as="geometry" />
        </mxCell>
      </root>
    </mxGraphModel>
  </diagram>
</mxfile>
